<svg id="visual" viewBox="0 0 900 600" width="900" height="600" xmlns="http://www.w3.org/2000/svg" xmlns:xlink="http://www.w3.org/1999/xlink" version="1.1"><path d="M0 97L13.7 90C27.3 83 54.7 69 82 66C109.3 63 136.7 71 163.8 71C191 71 218 63 245.2 57C272.3 51 299.7 47 327 50C354.3 53 381.7 63 409 66C436.3 69 463.7 65 491 62C518.3 59 545.7 57 573 56C600.3 55 627.7 55 654.8 59C682 63 709 71 736.2 78C763.3 85 790.7 91 818 93C845.3 95 872.7 93 886.3 92L900 91L900 0L886.3 0C872.7 0 845.3 0 818 0C790.7 0 763.3 0 736.2 0C709 0 682 0 654.8 0C627.7 0 600.3 0 573 0C545.7 0 518.3 0 491 0C463.7 0 436.3 0 409 0C381.7 0 354.3 0 327 0C299.7 0 272.3 0 245.2 0C218 0 191 0 163.8 0C136.7 0 109.3 0 82 0C54.7 0 27.3 0 13.7 0L0 0Z" fill="#0066ff"></path><path d="M0 157L13.7 151C27.3 145 54.7 133 82 130C109.3 127 136.7 133 163.8 140C191 147 218 155 245.2 161C272.3 167 299.7 171 327 169C354.3 167 381.7 159 409 150C436.3 141 463.7 131 491 128C518.3 125 545.7 129 573 130C600.3 131 627.7 129 654.8 127C682 125 709 123 736.2 135C763.3 147 790.7 173 818 180C845.3 187 872.7 175 886.3 169L900 163L900 89L886.3 90C872.7 91 845.3 93 818 91C790.7 89 763.3 83 736.2 76C709 69 682 61 654.8 57C627.7 53 600.3 53 573 54C545.7 55 518.3 57 491 60C463.7 63 436.3 67 409 64C381.7 61 354.3 51 327 48C299.7 45 272.3 49 245.2 55C218 61 191 69 163.8 69C136.7 69 109.3 61 82 64C54.7 67 27.3 81 13.7 88L0 95Z" fill="#144ed0"></path><path d="M0 277L13.7 278C27.3 279 54.7 281 82 286C109.3 291 136.7 299 163.8 310C191 321 218 335 245.2 331C272.3 327 299.7 305 327 302C354.3 299 381.7 315 409 310C436.3 305 463.7 279 491 285C518.3 291 545.7 329 573 350C600.3 371 627.7 375 654.8 354C682 333 709 287 736.2 283C763.3 279 790.7 317 818 334C845.3 351 872.7 347 886.3 345L900 343L900 161L886.3 167C872.7 173 845.3 185 818 178C790.7 171 763.3 145 736.2 133C709 121 682 123 654.8 125C627.7 127 600.3 129 573 128C545.7 127 518.3 123 491 126C463.7 129 436.3 139 409 148C381.7 157 354.3 165 327 167C299.7 169 272.3 165 245.2 159C218 153 191 145 163.8 138C136.7 131 109.3 125 82 128C54.7 131 27.3 143 13.7 149L0 155Z" fill="#1438a3"></path><path d="M0 475L13.7 478C27.3 481 54.7 487 82 489C109.3 491 136.7 489 163.8 490C191 491 218 495 245.2 505C272.3 515 299.7 531 327 521C354.3 511 381.7 475 409 471C436.3 467 463.7 495 491 505C518.3 515 545.7 507 573 502C600.3 497 627.7 495 654.8 495C682 495 709 497 736.2 502C763.3 507 790.7 515 818 516C845.3 517 872.7 511 886.3 508L900 505L900 341L886.3 343C872.7 345 845.3 349 818 332C790.7 315 763.3 277 736.2 281C709 285 682 331 654.8 352C627.7 373 600.3 369 573 348C545.7 327 518.3 289 491 283C463.7 277 436.3 303 409 308C381.7 313 354.3 297 327 300C299.7 303 272.3 325 245.2 329C218 333 191 319 163.8 308C136.7 297 109.3 289 82 284C54.7 279 27.3 277 13.7 276L0 275Z" fill="#0c2379"></path><path d="M0 601L13.7 601C27.3 601 54.7 601 82 601C109.3 601 136.7 601 163.8 601C191 601 218 601 245.2 601C272.3 601 299.7 601 327 601C354.3 601 381.7 601 409 601C436.3 601 463.7 601 491 601C518.3 601 545.7 601 573 601C600.3 601 627.7 601 654.8 601C682 601 709 601 736.2 601C763.3 601 790.7 601 818 601C845.3 601 872.7 601 886.3 601L900 601L900 503L886.3 506C872.7 509 845.3 515 818 514C790.7 513 763.3 505 736.2 500C709 495 682 493 654.8 493C627.7 493 600.3 495 573 500C545.7 505 518.3 513 491 503C463.7 493 436.3 465 409 469C381.7 473 354.3 509 327 519C299.7 529 272.3 513 245.2 503C218 493 191 489 163.8 488C136.7 487 109.3 489 82 487C54.7 485 27.3 479 13.7 476L0 473Z" fill="#011052"></path></svg>