<svg id="visual" viewBox="0 0 900 600" width="900" height="600" xmlns="http://www.w3.org/2000/svg" xmlns:xlink="http://www.w3.org/1999/xlink" version="1.1"><path d="M0 67L13.7 66C27.3 65 54.7 63 82 65C109.3 67 136.7 73 163.8 79C191 85 218 91 245.2 89C272.3 87 299.7 77 327 75C354.3 73 381.7 79 409 85C436.3 91 463.7 97 491 95C518.3 93 545.7 83 573 76C600.3 69 627.7 65 654.8 67C682 69 709 77 736.2 79C763.3 81 790.7 77 818 69C845.3 61 872.7 49 886.3 43L900 37L900 0L886.3 0C872.7 0 845.3 0 818 0C790.7 0 763.3 0 736.2 0C709 0 682 0 654.8 0C627.7 0 600.3 0 573 0C545.7 0 518.3 0 491 0C463.7 0 436.3 0 409 0C381.7 0 354.3 0 327 0C299.7 0 272.3 0 245.2 0C218 0 191 0 163.8 0C136.7 0 109.3 0 82 0C54.7 0 27.3 0 13.7 0L0 0Z" fill="#ae68ff"></path><path d="M0 133L13.7 137C27.3 141 54.7 149 82 155C109.3 161 136.7 165 163.8 172C191 179 218 189 245.2 189C272.3 189 299.7 179 327 176C354.3 173 381.7 177 409 174C436.3 171 463.7 161 491 157C518.3 153 545.7 155 573 149C600.3 143 627.7 129 654.8 135C682 141 709 167 736.2 180C763.3 193 790.7 193 818 182C845.3 171 872.7 149 886.3 138L900 127L900 35L886.3 41C872.7 47 845.3 59 818 67C790.7 75 763.3 79 736.2 77C709 75 682 67 654.8 65C627.7 63 600.3 67 573 74C545.7 81 518.3 91 491 93C463.7 95 436.3 89 409 83C381.7 77 354.3 71 327 73C299.7 75 272.3 85 245.2 87C218 89 191 83 163.8 77C136.7 71 109.3 65 82 63C54.7 61 27.3 63 13.7 64L0 65Z" fill="#9743ff"></path><path d="M0 241L13.7 240C27.3 239 54.7 237 82 236C109.3 235 136.7 235 163.8 241C191 247 218 259 245.2 263C272.3 267 299.7 263 327 267C354.3 271 381.7 283 409 284C436.3 285 463.7 275 491 262C518.3 249 545.7 233 573 236C600.3 239 627.7 261 654.8 273C682 285 709 287 736.2 295C763.3 303 790.7 317 818 317C845.3 317 872.7 303 886.3 296L900 289L900 125L886.3 136C872.7 147 845.3 169 818 180C790.7 191 763.3 191 736.2 178C709 165 682 139 654.8 133C627.7 127 600.3 141 573 147C545.7 153 518.3 151 491 155C463.7 159 436.3 169 409 172C381.7 175 354.3 171 327 174C299.7 177 272.3 187 245.2 187C218 187 191 177 163.8 170C136.7 163 109.3 159 82 153C54.7 147 27.3 139 13.7 135L0 131Z" fill="#7c00ff"></path><path d="M0 409L13.7 413C27.3 417 54.7 425 82 439C109.3 453 136.7 473 163.8 469C191 465 218 437 245.2 428C272.3 419 299.7 429 327 426C354.3 423 381.7 407 409 397C436.3 387 463.7 383 491 391C518.3 399 545.7 419 573 420C600.3 421 627.7 403 654.8 396C682 389 709 393 736.2 415C763.3 437 790.7 477 818 475C845.3 473 872.7 429 886.3 407L900 385L900 287L886.3 294C872.7 301 845.3 315 818 315C790.7 315 763.3 301 736.2 293C709 285 682 283 654.8 271C627.7 259 600.3 237 573 234C545.7 231 518.3 247 491 260C463.7 273 436.3 283 409 282C381.7 281 354.3 269 327 265C299.7 261 272.3 265 245.2 261C218 257 191 245 163.8 239C136.7 233 109.3 233 82 234C54.7 235 27.3 237 13.7 238L0 239Z" fill="#6c00dc"></path><path d="M0 601L13.7 601C27.3 601 54.7 601 82 601C109.3 601 136.7 601 163.8 601C191 601 218 601 245.2 601C272.3 601 299.7 601 327 601C354.3 601 381.7 601 409 601C436.3 601 463.7 601 491 601C518.3 601 545.7 601 573 601C600.3 601 627.7 601 654.8 601C682 601 709 601 736.2 601C763.3 601 790.7 601 818 601C845.3 601 872.7 601 886.3 601L900 601L900 383L886.3 405C872.7 427 845.3 471 818 473C790.7 475 763.3 435 736.2 413C709 391 682 387 654.8 394C627.7 401 600.3 419 573 418C545.7 417 518.3 397 491 389C463.7 381 436.3 385 409 395C381.7 405 354.3 421 327 424C299.7 427 272.3 417 245.2 426C218 435 191 463 163.8 467C136.7 471 109.3 451 82 437C54.7 423 27.3 415 13.7 411L0 407Z" fill="#5c00ba"></path></svg>