<svg id="visual" viewBox="0 0 900 600" width="900" height="600" xmlns="http://www.w3.org/2000/svg" xmlns:xlink="http://www.w3.org/1999/xlink" version="1.1"><path d="M0 85L13.7 98C27.3 111 54.7 137 82 143C109.3 149 136.7 135 163.8 132C191 129 218 137 245.2 156C272.3 175 299.7 205 327 194C354.3 183 381.7 131 409 123C436.3 115 463.7 151 491 167C518.3 183 545.7 179 573 183C600.3 187 627.7 199 654.8 198C682 197 709 183 736.2 178C763.3 173 790.7 177 818 177C845.3 177 872.7 173 886.3 171L900 169L900 0L886.3 0C872.7 0 845.3 0 818 0C790.7 0 763.3 0 736.2 0C709 0 682 0 654.8 0C627.7 0 600.3 0 573 0C545.7 0 518.3 0 491 0C463.7 0 436.3 0 409 0C381.7 0 354.3 0 327 0C299.7 0 272.3 0 245.2 0C218 0 191 0 163.8 0C136.7 0 109.3 0 82 0C54.7 0 27.3 0 13.7 0L0 0Z" fill="#6198ff"></path><path d="M0 181L13.7 188C27.3 195 54.7 209 82 206C109.3 203 136.7 183 163.8 187C191 191 218 219 245.2 241C272.3 263 299.7 279 327 267C354.3 255 381.7 215 409 214C436.3 213 463.7 251 491 266C518.3 281 545.7 273 573 272C600.3 271 627.7 277 654.8 267C682 257 709 231 736.2 231C763.3 231 790.7 257 818 265C845.3 273 872.7 263 886.3 258L900 253L900 167L886.3 169C872.7 171 845.3 175 818 175C790.7 175 763.3 171 736.2 176C709 181 682 195 654.8 196C627.7 197 600.3 185 573 181C545.7 177 518.3 181 491 165C463.7 149 436.3 113 409 121C381.7 129 354.3 181 327 192C299.7 203 272.3 173 245.2 154C218 135 191 127 163.8 130C136.7 133 109.3 147 82 141C54.7 135 27.3 109 13.7 96L0 83Z" fill="#3c80ff"></path><path d="M0 451L13.7 432C27.3 413 54.7 375 82 375C109.3 375 136.7 413 163.8 436C191 459 218 467 245.2 459C272.3 451 299.7 427 327 419C354.3 411 381.7 419 409 421C436.3 423 463.7 419 491 424C518.3 429 545.7 443 573 440C600.3 437 627.7 417 654.8 413C682 409 709 421 736.2 424C763.3 427 790.7 421 818 420C845.3 419 872.7 423 886.3 425L900 427L900 251L886.3 256C872.7 261 845.3 271 818 263C790.7 255 763.3 229 736.2 229C709 229 682 255 654.8 265C627.7 275 600.3 269 573 270C545.7 271 518.3 279 491 264C463.7 249 436.3 211 409 212C381.7 213 354.3 253 327 265C299.7 277 272.3 261 245.2 239C218 217 191 189 163.8 185C136.7 181 109.3 201 82 204C54.7 207 27.3 193 13.7 186L0 179Z" fill="#0066ff"></path><path d="M0 535L13.7 523C27.3 511 54.7 487 82 488C109.3 489 136.7 515 163.8 528C191 541 218 541 245.2 538C272.3 535 299.7 529 327 519C354.3 509 381.7 495 409 494C436.3 493 463.7 505 491 511C518.3 517 545.7 517 573 505C600.3 493 627.7 469 654.8 469C682 469 709 493 736.2 506C763.3 519 790.7 521 818 525C845.3 529 872.7 535 886.3 538L900 541L900 425L886.3 423C872.7 421 845.3 417 818 418C790.7 419 763.3 425 736.2 422C709 419 682 407 654.8 411C627.7 415 600.3 435 573 438C545.7 441 518.3 427 491 422C463.7 417 436.3 421 409 419C381.7 417 354.3 409 327 417C299.7 425 272.3 449 245.2 457C218 465 191 457 163.8 434C136.7 411 109.3 373 82 373C54.7 373 27.3 411 13.7 430L0 449Z" fill="#0059dd"></path><path d="M0 601L13.7 601C27.3 601 54.7 601 82 601C109.3 601 136.7 601 163.8 601C191 601 218 601 245.2 601C272.3 601 299.7 601 327 601C354.3 601 381.7 601 409 601C436.3 601 463.7 601 491 601C518.3 601 545.7 601 573 601C600.3 601 627.7 601 654.8 601C682 601 709 601 736.2 601C763.3 601 790.7 601 818 601C845.3 601 872.7 601 886.3 601L900 601L900 539L886.3 536C872.7 533 845.3 527 818 523C790.7 519 763.3 517 736.2 504C709 491 682 467 654.8 467C627.7 467 600.3 491 573 503C545.7 515 518.3 515 491 509C463.7 503 436.3 491 409 492C381.7 493 354.3 507 327 517C299.7 527 272.3 533 245.2 536C218 539 191 539 163.8 526C136.7 513 109.3 487 82 486C54.7 485 27.3 509 13.7 521L0 533Z" fill="#004cbb"></path></svg>