<svg id="visual" viewBox="0 0 900 600" width="900" height="600" xmlns="http://www.w3.org/2000/svg" xmlns:xlink="http://www.w3.org/1999/xlink" version="1.1"><path d="M0 91L13.7 87C27.3 83 54.7 75 82 84C109.3 93 136.7 119 163.8 124C191 129 218 113 245.2 111C272.3 109 299.7 121 327 129C354.3 137 381.7 141 409 135C436.3 129 463.7 113 491 118C518.3 123 545.7 149 573 156C600.3 163 627.7 151 654.8 138C682 125 709 111 736.2 111C763.3 111 790.7 125 818 133C845.3 141 872.7 143 886.3 144L900 145L900 0L886.3 0C872.7 0 845.3 0 818 0C790.7 0 763.3 0 736.2 0C709 0 682 0 654.8 0C627.7 0 600.3 0 573 0C545.7 0 518.3 0 491 0C463.7 0 436.3 0 409 0C381.7 0 354.3 0 327 0C299.7 0 272.3 0 245.2 0C218 0 191 0 163.8 0C136.7 0 109.3 0 82 0C54.7 0 27.3 0 13.7 0L0 0Z" fill="#9265ff"></path><path d="M0 139L13.7 136C27.3 133 54.7 127 82 134C109.3 141 136.7 161 163.8 165C191 169 218 157 245.2 158C272.3 159 299.7 173 327 186C354.3 199 381.7 211 409 212C436.3 213 463.7 203 491 207C518.3 211 545.7 229 573 234C600.3 239 627.7 231 654.8 219C682 207 709 191 736.2 183C763.3 175 790.7 175 818 187C845.3 199 872.7 223 886.3 235L900 247L900 143L886.3 142C872.7 141 845.3 139 818 131C790.7 123 763.3 109 736.2 109C709 109 682 123 654.8 136C627.7 149 600.3 161 573 154C545.7 147 518.3 121 491 116C463.7 111 436.3 127 409 133C381.7 139 354.3 135 327 127C299.7 119 272.3 107 245.2 109C218 111 191 127 163.8 122C136.7 117 109.3 91 82 82C54.7 73 27.3 81 13.7 85L0 89Z" fill="#7440ff"></path><path d="M0 319L13.7 305C27.3 291 54.7 263 82 280C109.3 297 136.7 359 163.8 379C191 399 218 377 245.2 352C272.3 327 299.7 299 327 295C354.3 291 381.7 311 409 328C436.3 345 463.7 359 491 367C518.3 375 545.7 377 573 371C600.3 365 627.7 351 654.8 353C682 355 709 373 736.2 389C763.3 405 790.7 419 818 407C845.3 395 872.7 357 886.3 338L900 319L900 245L886.3 233C872.7 221 845.3 197 818 185C790.7 173 763.3 173 736.2 181C709 189 682 205 654.8 217C627.7 229 600.3 237 573 232C545.7 227 518.3 209 491 205C463.7 201 436.3 211 409 210C381.7 209 354.3 197 327 184C299.7 171 272.3 157 245.2 156C218 155 191 167 163.8 163C136.7 159 109.3 139 82 132C54.7 125 27.3 131 13.7 134L0 137Z" fill="#4d00ff"></path><path d="M0 523L13.7 522C27.3 521 54.7 519 82 522C109.3 525 136.7 533 163.8 530C191 527 218 513 245.2 511C272.3 509 299.7 519 327 521C354.3 523 381.7 517 409 511C436.3 505 463.7 499 491 507C518.3 515 545.7 537 573 545C600.3 553 627.7 547 654.8 540C682 533 709 525 736.2 527C763.3 529 790.7 541 818 543C845.3 545 872.7 537 886.3 533L900 529L900 317L886.3 336C872.7 355 845.3 393 818 405C790.7 417 763.3 403 736.2 387C709 371 682 353 654.8 351C627.7 349 600.3 363 573 369C545.7 375 518.3 373 491 365C463.7 357 436.3 343 409 326C381.7 309 354.3 289 327 293C299.7 297 272.3 325 245.2 350C218 375 191 397 163.8 377C136.7 357 109.3 295 82 278C54.7 261 27.3 289 13.7 303L0 317Z" fill="#4203dd"></path><path d="M0 601L13.7 601C27.3 601 54.7 601 82 601C109.3 601 136.7 601 163.8 601C191 601 218 601 245.2 601C272.3 601 299.7 601 327 601C354.3 601 381.7 601 409 601C436.3 601 463.7 601 491 601C518.3 601 545.7 601 573 601C600.3 601 627.7 601 654.8 601C682 601 709 601 736.2 601C763.3 601 790.7 601 818 601C845.3 601 872.7 601 886.3 601L900 601L900 527L886.3 531C872.7 535 845.3 543 818 541C790.7 539 763.3 527 736.2 525C709 523 682 531 654.8 538C627.7 545 600.3 551 573 543C545.7 535 518.3 513 491 505C463.7 497 436.3 503 409 509C381.7 515 354.3 521 327 519C299.7 517 272.3 507 245.2 509C218 511 191 525 163.8 528C136.7 531 109.3 523 82 520C54.7 517 27.3 519 13.7 520L0 521Z" fill="#3705bb"></path></svg>