<svg id="visual" viewBox="0 0 900 600" width="900" height="600" xmlns="http://www.w3.org/2000/svg" xmlns:xlink="http://www.w3.org/1999/xlink" version="1.1"><path d="M0 103L13.7 94C27.3 85 54.7 67 82 62C109.3 57 136.7 65 163.8 73C191 81 218 89 245.2 83C272.3 77 299.7 57 327 52C354.3 47 381.7 57 409 68C436.3 79 463.7 91 491 91C518.3 91 545.7 79 573 79C600.3 79 627.7 91 654.8 87C682 83 709 63 736.2 59C763.3 55 790.7 67 818 76C845.3 85 872.7 91 886.3 94L900 97L900 0L886.3 0C872.7 0 845.3 0 818 0C790.7 0 763.3 0 736.2 0C709 0 682 0 654.8 0C627.7 0 600.3 0 573 0C545.7 0 518.3 0 491 0C463.7 0 436.3 0 409 0C381.7 0 354.3 0 327 0C299.7 0 272.3 0 245.2 0C218 0 191 0 163.8 0C136.7 0 109.3 0 82 0C54.7 0 27.3 0 13.7 0L0 0Z" fill="#10851a"></path><path d="M0 343L13.7 320C27.3 297 54.7 251 82 236C109.3 221 136.7 237 163.8 254C191 271 218 289 245.2 268C272.3 247 299.7 187 327 186C354.3 185 381.7 243 409 264C436.3 285 463.7 269 491 250C518.3 231 545.7 209 573 199C600.3 189 627.7 191 654.8 200C682 209 709 225 736.2 239C763.3 253 790.7 265 818 274C845.3 283 872.7 289 886.3 292L900 295L900 95L886.3 92C872.7 89 845.3 83 818 74C790.7 65 763.3 53 736.2 57C709 61 682 81 654.8 85C627.7 89 600.3 77 573 77C545.7 77 518.3 89 491 89C463.7 89 436.3 77 409 66C381.7 55 354.3 45 327 50C299.7 55 272.3 75 245.2 81C218 87 191 79 163.8 71C136.7 63 109.3 55 82 60C54.7 65 27.3 83 13.7 92L0 101Z" fill="#066910"></path><path d="M0 409L13.7 394C27.3 379 54.7 349 82 338C109.3 327 136.7 335 163.8 346C191 357 218 371 245.2 348C272.3 325 299.7 265 327 259C354.3 253 381.7 301 409 317C436.3 333 463.7 317 491 300C518.3 283 545.7 265 573 263C600.3 261 627.7 275 654.8 289C682 303 709 317 736.2 324C763.3 331 790.7 331 818 344C845.3 357 872.7 383 886.3 396L900 409L900 293L886.3 290C872.7 287 845.3 281 818 272C790.7 263 763.3 251 736.2 237C709 223 682 207 654.8 198C627.7 189 600.3 187 573 197C545.7 207 518.3 229 491 248C463.7 267 436.3 283 409 262C381.7 241 354.3 183 327 184C299.7 185 272.3 245 245.2 266C218 287 191 269 163.8 252C136.7 235 109.3 219 82 234C54.7 249 27.3 295 13.7 318L0 341Z" fill="#004f07"></path><path d="M0 499L13.7 481C27.3 463 54.7 427 82 410C109.3 393 136.7 395 163.8 410C191 425 218 453 245.2 449C272.3 445 299.7 409 327 404C354.3 399 381.7 425 409 436C436.3 447 463.7 443 491 431C518.3 419 545.7 399 573 390C600.3 381 627.7 383 654.8 397C682 411 709 437 736.2 442C763.3 447 790.7 431 818 438C845.3 445 872.7 475 886.3 490L900 505L900 407L886.3 394C872.7 381 845.3 355 818 342C790.7 329 763.3 329 736.2 322C709 315 682 301 654.8 287C627.7 273 600.3 259 573 261C545.7 263 518.3 281 491 298C463.7 315 436.3 331 409 315C381.7 299 354.3 251 327 257C299.7 263 272.3 323 245.2 346C218 369 191 355 163.8 344C136.7 333 109.3 325 82 336C54.7 347 27.3 377 13.7 392L0 407Z" fill="#01440a"></path><path d="M0 601L13.7 601C27.3 601 54.7 601 82 601C109.3 601 136.7 601 163.8 601C191 601 218 601 245.2 601C272.3 601 299.7 601 327 601C354.3 601 381.7 601 409 601C436.3 601 463.7 601 491 601C518.3 601 545.7 601 573 601C600.3 601 627.7 601 654.8 601C682 601 709 601 736.2 601C763.3 601 790.7 601 818 601C845.3 601 872.7 601 886.3 601L900 601L900 503L886.3 488C872.7 473 845.3 443 818 436C790.7 429 763.3 445 736.2 440C709 435 682 409 654.8 395C627.7 381 600.3 379 573 388C545.7 397 518.3 417 491 429C463.7 441 436.3 445 409 434C381.7 423 354.3 397 327 402C299.7 407 272.3 443 245.2 447C218 451 191 423 163.8 408C136.7 393 109.3 391 82 408C54.7 425 27.3 461 13.7 479L0 497Z" fill="#033a0c"></path></svg>