<svg id="visual" viewBox="0 0 900 600" width="900" height="600" xmlns="http://www.w3.org/2000/svg" xmlns:xlink="http://www.w3.org/1999/xlink" version="1.1"><path d="M0 49L13.7 53C27.3 57 54.7 65 82 64C109.3 63 136.7 53 163.8 50C191 47 218 51 245.2 61C272.3 71 299.7 87 327 94C354.3 101 381.7 99 409 101C436.3 103 463.7 109 491 102C518.3 95 545.7 75 573 70C600.3 65 627.7 75 654.8 87C682 99 709 113 736.2 119C763.3 125 790.7 123 818 118C845.3 113 872.7 105 886.3 101L900 97L900 0L886.3 0C872.7 0 845.3 0 818 0C790.7 0 763.3 0 736.2 0C709 0 682 0 654.8 0C627.7 0 600.3 0 573 0C545.7 0 518.3 0 491 0C463.7 0 436.3 0 409 0C381.7 0 354.3 0 327 0C299.7 0 272.3 0 245.2 0C218 0 191 0 163.8 0C136.7 0 109.3 0 82 0C54.7 0 27.3 0 13.7 0L0 0Z" fill="#1b9370"></path><path d="M0 271L13.7 256C27.3 241 54.7 211 82 198C109.3 185 136.7 189 163.8 208C191 227 218 261 245.2 273C272.3 285 299.7 275 327 268C354.3 261 381.7 257 409 265C436.3 273 463.7 293 491 277C518.3 261 545.7 209 573 200C600.3 191 627.7 225 654.8 233C682 241 709 223 736.2 224C763.3 225 790.7 245 818 248C845.3 251 872.7 237 886.3 230L900 223L900 95L886.3 99C872.7 103 845.3 111 818 116C790.7 121 763.3 123 736.2 117C709 111 682 97 654.8 85C627.7 73 600.3 63 573 68C545.7 73 518.3 93 491 100C463.7 107 436.3 101 409 99C381.7 97 354.3 99 327 92C299.7 85 272.3 69 245.2 59C218 49 191 45 163.8 48C136.7 51 109.3 61 82 62C54.7 63 27.3 55 13.7 51L0 47Z" fill="#0e7a5b"></path><path d="M0 373L13.7 383C27.3 393 54.7 413 82 416C109.3 419 136.7 405 163.8 397C191 389 218 387 245.2 403C272.3 419 299.7 453 327 455C354.3 457 381.7 427 409 417C436.3 407 463.7 417 491 416C518.3 415 545.7 403 573 404C600.3 405 627.7 419 654.8 427C682 435 709 437 736.2 438C763.3 439 790.7 439 818 441C845.3 443 872.7 447 886.3 449L900 451L900 221L886.3 228C872.7 235 845.3 249 818 246C790.7 243 763.3 223 736.2 222C709 221 682 239 654.8 231C627.7 223 600.3 189 573 198C545.7 207 518.3 259 491 275C463.7 291 436.3 271 409 263C381.7 255 354.3 259 327 266C299.7 273 272.3 283 245.2 271C218 259 191 225 163.8 206C136.7 187 109.3 183 82 196C54.7 209 27.3 239 13.7 254L0 269Z" fill="#006247"></path><path d="M0 463L13.7 467C27.3 471 54.7 479 82 474C109.3 469 136.7 451 163.8 440C191 429 218 425 245.2 440C272.3 455 299.7 489 327 497C354.3 505 381.7 487 409 481C436.3 475 463.7 481 491 475C518.3 469 545.7 451 573 459C600.3 467 627.7 501 654.8 511C682 521 709 507 736.2 507C763.3 507 790.7 521 818 529C845.3 537 872.7 539 886.3 540L900 541L900 449L886.3 447C872.7 445 845.3 441 818 439C790.7 437 763.3 437 736.2 436C709 435 682 433 654.8 425C627.7 417 600.3 403 573 402C545.7 401 518.3 413 491 414C463.7 415 436.3 405 409 415C381.7 425 354.3 455 327 453C299.7 451 272.3 417 245.2 401C218 385 191 387 163.8 395C136.7 403 109.3 417 82 414C54.7 411 27.3 391 13.7 381L0 371Z" fill="#02553e"></path><path d="M0 601L13.7 601C27.3 601 54.7 601 82 601C109.3 601 136.7 601 163.8 601C191 601 218 601 245.2 601C272.3 601 299.7 601 327 601C354.3 601 381.7 601 409 601C436.3 601 463.7 601 491 601C518.3 601 545.7 601 573 601C600.3 601 627.7 601 654.8 601C682 601 709 601 736.2 601C763.3 601 790.7 601 818 601C845.3 601 872.7 601 886.3 601L900 601L900 539L886.3 538C872.7 537 845.3 535 818 527C790.7 519 763.3 505 736.2 505C709 505 682 519 654.8 509C627.7 499 600.3 465 573 457C545.7 449 518.3 467 491 473C463.7 479 436.3 473 409 479C381.7 485 354.3 503 327 495C299.7 487 272.3 453 245.2 438C218 423 191 427 163.8 438C136.7 449 109.3 467 82 472C54.7 477 27.3 469 13.7 465L0 461Z" fill="#044835"></path></svg>