<svg id="visual" viewBox="0 0 900 600" width="900" height="600" xmlns="http://www.w3.org/2000/svg" xmlns:xlink="http://www.w3.org/1999/xlink" version="1.1"><path d="M0 91L13.7 91C27.3 91 54.7 91 82 88C109.3 85 136.7 79 163.8 79C191 79 218 85 245.2 90C272.3 95 299.7 99 327 99C354.3 99 381.7 95 409 93C436.3 91 463.7 91 491 94C518.3 97 545.7 103 573 95C600.3 87 627.7 65 654.8 55C682 45 709 47 736.2 53C763.3 59 790.7 69 818 83C845.3 97 872.7 115 886.3 124L900 133L900 0L886.3 0C872.7 0 845.3 0 818 0C790.7 0 763.3 0 736.2 0C709 0 682 0 654.8 0C627.7 0 600.3 0 573 0C545.7 0 518.3 0 491 0C463.7 0 436.3 0 409 0C381.7 0 354.3 0 327 0C299.7 0 272.3 0 245.2 0C218 0 191 0 163.8 0C136.7 0 109.3 0 82 0C54.7 0 27.3 0 13.7 0L0 0Z" fill="#7e850e"></path><path d="M0 259L13.7 240C27.3 221 54.7 183 82 164C109.3 145 136.7 145 163.8 157C191 169 218 193 245.2 196C272.3 199 299.7 181 327 178C354.3 175 381.7 187 409 193C436.3 199 463.7 199 491 207C518.3 215 545.7 231 573 221C600.3 211 627.7 175 654.8 167C682 159 709 179 736.2 179C763.3 179 790.7 159 818 167C845.3 175 872.7 211 886.3 229L900 247L900 131L886.3 122C872.7 113 845.3 95 818 81C790.7 67 763.3 57 736.2 51C709 45 682 43 654.8 53C627.7 63 600.3 85 573 93C545.7 101 518.3 95 491 92C463.7 89 436.3 89 409 91C381.7 93 354.3 97 327 97C299.7 97 272.3 93 245.2 88C218 83 191 77 163.8 77C136.7 77 109.3 83 82 86C54.7 89 27.3 89 13.7 89L0 89Z" fill="#636905"></path><path d="M0 301L13.7 283C27.3 265 54.7 229 82 220C109.3 211 136.7 229 163.8 248C191 267 218 287 245.2 287C272.3 287 299.7 267 327 263C354.3 259 381.7 271 409 274C436.3 277 463.7 271 491 282C518.3 293 545.7 321 573 309C600.3 297 627.7 245 654.8 236C682 227 709 261 736.2 267C763.3 273 790.7 251 818 251C845.3 251 872.7 273 886.3 284L900 295L900 245L886.3 227C872.7 209 845.3 173 818 165C790.7 157 763.3 177 736.2 177C709 177 682 157 654.8 165C627.7 173 600.3 209 573 219C545.7 229 518.3 213 491 205C463.7 197 436.3 197 409 191C381.7 185 354.3 173 327 176C299.7 179 272.3 197 245.2 194C218 191 191 167 163.8 155C136.7 143 109.3 143 82 162C54.7 181 27.3 219 13.7 238L0 257Z" fill="#4a4f00"></path><path d="M0 457L13.7 441C27.3 425 54.7 393 82 392C109.3 391 136.7 421 163.8 440C191 459 218 467 245.2 461C272.3 455 299.7 435 327 419C354.3 403 381.7 391 409 389C436.3 387 463.7 395 491 410C518.3 425 545.7 447 573 440C600.3 433 627.7 397 654.8 404C682 411 709 461 736.2 485C763.3 509 790.7 507 818 493C845.3 479 872.7 453 886.3 440L900 427L900 293L886.3 282C872.7 271 845.3 249 818 249C790.7 249 763.3 271 736.2 265C709 259 682 225 654.8 234C627.7 243 600.3 295 573 307C545.7 319 518.3 291 491 280C463.7 269 436.3 275 409 272C381.7 269 354.3 257 327 261C299.7 265 272.3 285 245.2 285C218 285 191 265 163.8 246C136.7 227 109.3 209 82 218C54.7 227 27.3 263 13.7 281L0 299Z" fill="#3f4504"></path><path d="M0 601L13.7 601C27.3 601 54.7 601 82 601C109.3 601 136.7 601 163.8 601C191 601 218 601 245.2 601C272.3 601 299.7 601 327 601C354.3 601 381.7 601 409 601C436.3 601 463.7 601 491 601C518.3 601 545.7 601 573 601C600.3 601 627.7 601 654.8 601C682 601 709 601 736.2 601C763.3 601 790.7 601 818 601C845.3 601 872.7 601 886.3 601L900 601L900 425L886.3 438C872.7 451 845.3 477 818 491C790.7 505 763.3 507 736.2 483C709 459 682 409 654.8 402C627.7 395 600.3 431 573 438C545.7 445 518.3 423 491 408C463.7 393 436.3 385 409 387C381.7 389 354.3 401 327 417C299.7 433 272.3 453 245.2 459C218 465 191 457 163.8 438C136.7 419 109.3 389 82 390C54.7 391 27.3 423 13.7 439L0 455Z" fill="#353b06"></path></svg>