<svg id="visual" viewBox="0 0 900 600" width="900" height="600" xmlns="http://www.w3.org/2000/svg" xmlns:xlink="http://www.w3.org/1999/xlink" version="1.1"><path d="M0 43L13.7 43C27.3 43 54.7 43 82 50C109.3 57 136.7 71 163.8 83C191 95 218 105 245.2 100C272.3 95 299.7 75 327 75C354.3 75 381.7 95 409 107C436.3 119 463.7 123 491 115C518.3 107 545.7 87 573 85C600.3 83 627.7 99 654.8 99C682 99 709 83 736.2 81C763.3 79 790.7 91 818 100C845.3 109 872.7 115 886.3 118L900 121L900 0L886.3 0C872.7 0 845.3 0 818 0C790.7 0 763.3 0 736.2 0C709 0 682 0 654.8 0C627.7 0 600.3 0 573 0C545.7 0 518.3 0 491 0C463.7 0 436.3 0 409 0C381.7 0 354.3 0 327 0C299.7 0 272.3 0 245.2 0C218 0 191 0 163.8 0C136.7 0 109.3 0 82 0C54.7 0 27.3 0 13.7 0L0 0Z" fill="#91167b"></path><path d="M0 307L13.7 295C27.3 283 54.7 259 82 239C109.3 219 136.7 203 163.8 207C191 211 218 235 245.2 242C272.3 249 299.7 239 327 229C354.3 219 381.7 209 409 221C436.3 233 463.7 267 491 270C518.3 273 545.7 245 573 241C600.3 237 627.7 257 654.8 275C682 293 709 309 736.2 317C763.3 325 790.7 325 818 319C845.3 313 872.7 301 886.3 295L900 289L900 119L886.3 116C872.7 113 845.3 107 818 98C790.7 89 763.3 77 736.2 79C709 81 682 97 654.8 97C627.7 97 600.3 81 573 83C545.7 85 518.3 105 491 113C463.7 121 436.3 117 409 105C381.7 93 354.3 73 327 73C299.7 73 272.3 93 245.2 98C218 103 191 93 163.8 81C136.7 69 109.3 55 82 48C54.7 41 27.3 41 13.7 41L0 41Z" fill="#780a64"></path><path d="M0 457L13.7 439C27.3 421 54.7 385 82 388C109.3 391 136.7 433 163.8 442C191 451 218 427 245.2 425C272.3 423 299.7 443 327 441C354.3 439 381.7 415 409 412C436.3 409 463.7 427 491 435C518.3 443 545.7 441 573 438C600.3 435 627.7 431 654.8 430C682 429 709 431 736.2 440C763.3 449 790.7 465 818 474C845.3 483 872.7 485 886.3 486L900 487L900 287L886.3 293C872.7 299 845.3 311 818 317C790.7 323 763.3 323 736.2 315C709 307 682 291 654.8 273C627.7 255 600.3 235 573 239C545.7 243 518.3 271 491 268C463.7 265 436.3 231 409 219C381.7 207 354.3 217 327 227C299.7 237 272.3 247 245.2 240C218 233 191 209 163.8 205C136.7 201 109.3 217 82 237C54.7 257 27.3 281 13.7 293L0 305Z" fill="#5f004e"></path><path d="M0 559L13.7 553C27.3 547 54.7 535 82 534C109.3 533 136.7 543 163.8 545C191 547 218 541 245.2 539C272.3 537 299.7 539 327 536C354.3 533 381.7 525 409 527C436.3 529 463.7 541 491 540C518.3 539 545.7 525 573 519C600.3 513 627.7 515 654.8 516C682 517 709 517 736.2 525C763.3 533 790.7 549 818 557C845.3 565 872.7 565 886.3 565L900 565L900 485L886.3 484C872.7 483 845.3 481 818 472C790.7 463 763.3 447 736.2 438C709 429 682 427 654.8 428C627.7 429 600.3 433 573 436C545.7 439 518.3 441 491 433C463.7 425 436.3 407 409 410C381.7 413 354.3 437 327 439C299.7 441 272.3 421 245.2 423C218 425 191 449 163.8 440C136.7 431 109.3 389 82 386C54.7 383 27.3 419 13.7 437L0 455Z" fill="#520544"></path><path d="M0 601L13.7 601C27.3 601 54.7 601 82 601C109.3 601 136.7 601 163.8 601C191 601 218 601 245.2 601C272.3 601 299.7 601 327 601C354.3 601 381.7 601 409 601C436.3 601 463.7 601 491 601C518.3 601 545.7 601 573 601C600.3 601 627.7 601 654.8 601C682 601 709 601 736.2 601C763.3 601 790.7 601 818 601C845.3 601 872.7 601 886.3 601L900 601L900 563L886.3 563C872.7 563 845.3 563 818 555C790.7 547 763.3 531 736.2 523C709 515 682 515 654.8 514C627.7 513 600.3 511 573 517C545.7 523 518.3 537 491 538C463.7 539 436.3 527 409 525C381.7 523 354.3 531 327 534C299.7 537 272.3 535 245.2 537C218 539 191 545 163.8 543C136.7 541 109.3 531 82 532C54.7 533 27.3 545 13.7 551L0 557Z" fill="#45083a"></path></svg>