<svg id="visual" viewBox="0 0 900 600" width="900" height="600" xmlns="http://www.w3.org/2000/svg" xmlns:xlink="http://www.w3.org/1999/xlink" version="1.1"><path d="M0 205L13.7 190C27.3 175 54.7 145 82 134C109.3 123 136.7 131 163.8 136C191 141 218 143 245.2 137C272.3 131 299.7 117 327 121C354.3 125 381.7 147 409 172C436.3 197 463.7 225 491 233C518.3 241 545.7 229 573 218C600.3 207 627.7 197 654.8 181C682 165 709 143 736.2 126C763.3 109 790.7 97 818 96C845.3 95 872.7 105 886.3 110L900 115L900 0L886.3 0C872.7 0 845.3 0 818 0C790.7 0 763.3 0 736.2 0C709 0 682 0 654.8 0C627.7 0 600.3 0 573 0C545.7 0 518.3 0 491 0C463.7 0 436.3 0 409 0C381.7 0 354.3 0 327 0C299.7 0 272.3 0 245.2 0C218 0 191 0 163.8 0C136.7 0 109.3 0 82 0C54.7 0 27.3 0 13.7 0L0 0Z" fill="#91171f"></path><path d="M0 277L13.7 261C27.3 245 54.7 213 82 200C109.3 187 136.7 193 163.8 199C191 205 218 211 245.2 204C272.3 197 299.7 177 327 183C354.3 189 381.7 221 409 244C436.3 267 463.7 281 491 284C518.3 287 545.7 279 573 277C600.3 275 627.7 279 654.8 267C682 255 709 227 736.2 207C763.3 187 790.7 175 818 176C845.3 177 872.7 191 886.3 198L900 205L900 113L886.3 108C872.7 103 845.3 93 818 94C790.7 95 763.3 107 736.2 124C709 141 682 163 654.8 179C627.7 195 600.3 205 573 216C545.7 227 518.3 239 491 231C463.7 223 436.3 195 409 170C381.7 145 354.3 123 327 119C299.7 115 272.3 129 245.2 135C218 141 191 139 163.8 134C136.7 129 109.3 121 82 132C54.7 143 27.3 173 13.7 188L0 203Z" fill="#770b14"></path><path d="M0 415L13.7 414C27.3 413 54.7 411 82 404C109.3 397 136.7 385 163.8 380C191 375 218 377 245.2 383C272.3 389 299.7 399 327 410C354.3 421 381.7 433 409 439C436.3 445 463.7 445 491 427C518.3 409 545.7 373 573 367C600.3 361 627.7 385 654.8 411C682 437 709 465 736.2 462C763.3 459 790.7 425 818 420C845.3 415 872.7 439 886.3 451L900 463L900 203L886.3 196C872.7 189 845.3 175 818 174C790.7 173 763.3 185 736.2 205C709 225 682 253 654.8 265C627.7 277 600.3 273 573 275C545.7 277 518.3 285 491 282C463.7 279 436.3 265 409 242C381.7 219 354.3 187 327 181C299.7 175 272.3 195 245.2 202C218 209 191 203 163.8 197C136.7 191 109.3 185 82 198C54.7 211 27.3 243 13.7 259L0 275Z" fill="#5f0006"></path><path d="M0 505L13.7 505C27.3 505 54.7 505 82 497C109.3 489 136.7 473 163.8 462C191 451 218 445 245.2 450C272.3 455 299.7 471 327 480C354.3 489 381.7 491 409 501C436.3 511 463.7 529 491 522C518.3 515 545.7 483 573 473C600.3 463 627.7 475 654.8 491C682 507 709 527 736.2 530C763.3 533 790.7 519 818 520C845.3 521 872.7 537 886.3 545L900 553L900 461L886.3 449C872.7 437 845.3 413 818 418C790.7 423 763.3 457 736.2 460C709 463 682 435 654.8 409C627.7 383 600.3 359 573 365C545.7 371 518.3 407 491 425C463.7 443 436.3 443 409 437C381.7 431 354.3 419 327 408C299.7 397 272.3 387 245.2 381C218 375 191 373 163.8 378C136.7 383 109.3 395 82 402C54.7 409 27.3 411 13.7 412L0 413Z" fill="#530309"></path><path d="M0 601L13.7 601C27.3 601 54.7 601 82 601C109.3 601 136.7 601 163.8 601C191 601 218 601 245.2 601C272.3 601 299.7 601 327 601C354.3 601 381.7 601 409 601C436.3 601 463.7 601 491 601C518.3 601 545.7 601 573 601C600.3 601 627.7 601 654.8 601C682 601 709 601 736.2 601C763.3 601 790.7 601 818 601C845.3 601 872.7 601 886.3 601L900 601L900 551L886.3 543C872.7 535 845.3 519 818 518C790.7 517 763.3 531 736.2 528C709 525 682 505 654.8 489C627.7 473 600.3 461 573 471C545.7 481 518.3 513 491 520C463.7 527 436.3 509 409 499C381.7 489 354.3 487 327 478C299.7 469 272.3 453 245.2 448C218 443 191 449 163.8 460C136.7 471 109.3 487 82 495C54.7 503 27.3 503 13.7 503L0 503Z" fill="#47050a"></path></svg>