<svg id="visual" viewBox="0 0 900 600" width="900" height="600" xmlns="http://www.w3.org/2000/svg" xmlns:xlink="http://www.w3.org/1999/xlink" version="1.1"><path d="M0 109L13.7 103C27.3 97 54.7 85 82 85C109.3 85 136.7 97 163.8 101C191 105 218 101 245.2 98C272.3 95 299.7 93 327 92C354.3 91 381.7 91 409 83C436.3 75 463.7 59 491 58C518.3 57 545.7 71 573 84C600.3 97 627.7 109 654.8 111C682 113 709 105 736.2 98C763.3 91 790.7 85 818 78C845.3 71 872.7 63 886.3 59L900 55L900 0L886.3 0C872.7 0 845.3 0 818 0C790.7 0 763.3 0 736.2 0C709 0 682 0 654.8 0C627.7 0 600.3 0 573 0C545.7 0 518.3 0 491 0C463.7 0 436.3 0 409 0C381.7 0 354.3 0 327 0C299.7 0 272.3 0 245.2 0C218 0 191 0 163.8 0C136.7 0 109.3 0 82 0C54.7 0 27.3 0 13.7 0L0 0Z" fill="#ef594d"></path><path d="M0 265L13.7 257C27.3 249 54.7 233 82 223C109.3 213 136.7 209 163.8 218C191 227 218 249 245.2 244C272.3 239 299.7 207 327 201C354.3 195 381.7 215 409 225C436.3 235 463.7 235 491 254C518.3 273 545.7 311 573 312C600.3 313 627.7 277 654.8 259C682 241 709 241 736.2 259C763.3 277 790.7 313 818 302C845.3 291 872.7 233 886.3 204L900 175L900 53L886.3 57C872.7 61 845.3 69 818 76C790.7 83 763.3 89 736.2 96C709 103 682 111 654.8 109C627.7 107 600.3 95 573 82C545.7 69 518.3 55 491 56C463.7 57 436.3 73 409 81C381.7 89 354.3 89 327 90C299.7 91 272.3 93 245.2 96C218 99 191 103 163.8 99C136.7 95 109.3 83 82 83C54.7 83 27.3 95 13.7 101L0 107Z" fill="#e43a2d"></path><path d="M0 415L13.7 418C27.3 421 54.7 427 82 426C109.3 425 136.7 417 163.8 418C191 419 218 429 245.2 432C272.3 435 299.7 431 327 435C354.3 439 381.7 451 409 445C436.3 439 463.7 415 491 420C518.3 425 545.7 459 573 471C600.3 483 627.7 473 654.8 462C682 451 709 439 736.2 438C763.3 437 790.7 447 818 437C845.3 427 872.7 397 886.3 382L900 367L900 173L886.3 202C872.7 231 845.3 289 818 300C790.7 311 763.3 275 736.2 257C709 239 682 239 654.8 257C627.7 275 600.3 311 573 310C545.7 309 518.3 271 491 252C463.7 233 436.3 233 409 223C381.7 213 354.3 193 327 199C299.7 205 272.3 237 245.2 242C218 247 191 225 163.8 216C136.7 207 109.3 211 82 221C54.7 231 27.3 247 13.7 255L0 263Z" fill="#d70404"></path><path d="M0 499L13.7 503C27.3 507 54.7 515 82 517C109.3 519 136.7 515 163.8 512C191 509 218 507 245.2 513C272.3 519 299.7 533 327 541C354.3 549 381.7 551 409 549C436.3 547 463.7 541 491 542C518.3 543 545.7 551 573 548C600.3 545 627.7 531 654.8 530C682 529 709 541 736.2 541C763.3 541 790.7 529 818 523C845.3 517 872.7 517 886.3 517L900 517L900 365L886.3 380C872.7 395 845.3 425 818 435C790.7 445 763.3 435 736.2 436C709 437 682 449 654.8 460C627.7 471 600.3 481 573 469C545.7 457 518.3 423 491 418C463.7 413 436.3 437 409 443C381.7 449 354.3 437 327 433C299.7 429 272.3 433 245.2 430C218 427 191 417 163.8 416C136.7 415 109.3 423 82 424C54.7 425 27.3 419 13.7 416L0 413Z" fill="#bb000d"></path><path d="M0 601L13.7 601C27.3 601 54.7 601 82 601C109.3 601 136.7 601 163.8 601C191 601 218 601 245.2 601C272.3 601 299.7 601 327 601C354.3 601 381.7 601 409 601C436.3 601 463.7 601 491 601C518.3 601 545.7 601 573 601C600.3 601 627.7 601 654.8 601C682 601 709 601 736.2 601C763.3 601 790.7 601 818 601C845.3 601 872.7 601 886.3 601L900 601L900 515L886.3 515C872.7 515 845.3 515 818 521C790.7 527 763.3 539 736.2 539C709 539 682 527 654.8 528C627.7 529 600.3 543 573 546C545.7 549 518.3 541 491 540C463.7 539 436.3 545 409 547C381.7 549 354.3 547 327 539C299.7 531 272.3 517 245.2 511C218 505 191 507 163.8 510C136.7 513 109.3 517 82 515C54.7 513 27.3 505 13.7 501L0 497Z" fill="#a00011"></path></svg>