<svg xmlns="http://www.w3.org/2000/svg" version="1.1" xmlns:xlink="http://www.w3.org/1999/xlink" xmlns:svgjs="http://svgjs.dev/svgjs" width="1419" height="256" preserveAspectRatio="none" viewBox="0 0 1419 256"><g mask="url(&quot;#SvgjsMask2012&quot;)" fill="none"><rect width="1419" height="256" x="0" y="0" fill="url(&quot;#SvgjsLinearGradient2013&quot;)"></rect><path d="M-62.91 192.38L-62.91 192.38" stroke="#132e65" stroke-width="1.5"></path><path d="M-62.91 192.38L61.47 254.81" stroke="#132e65" stroke-width="1.5"></path><path d="M-62.91 192.38L-60.3 375.02" stroke="#132e65" stroke-width="1.5"></path><path d="M-62.91 192.38L86.2 393.74" stroke="#132e65" stroke-width="1.5"></path><path d="M-62.91 192.38L233.28 222.4" stroke="#132e65" stroke-width="1.5"></path><path d="M-62.91 192.38L344.47 210.3" stroke="#132e65" stroke-width="1.5"></path><path d="M-62.91 192.38L409.64 389.43" stroke="#132e65" stroke-width="1.5"></path><path d="M-60.3 375.02L-60.3 375.02" stroke="#132e65" stroke-width="1.5"></path><path d="M-60.3 375.02L86.2 393.74" stroke="#132e65" stroke-width="1.5"></path><path d="M61.47 254.81L61.47 254.81" stroke="#132e65" stroke-width="1.5"></path><path d="M61.47 254.81L86.2 393.74" stroke="#132e65" stroke-width="1.5"></path><path d="M61.47 254.81L-60.3 375.02" stroke="#132e65" stroke-width="1.5"></path><path d="M86.2 393.74L86.2 393.74" stroke="#132e65" stroke-width="1.5"></path><path d="M86.2 393.74L233.28 222.4" stroke="#132e65" stroke-width="1.5"></path><path d="M86.2 393.74L344.47 210.3" stroke="#132e65" stroke-width="1.5"></path><path d="M86.2 393.74L409.64 389.43" stroke="#132e65" stroke-width="1.5"></path><path d="M233.28 222.4L233.28 222.4" stroke="#132e65" stroke-width="1.5"></path><path d="M233.28 222.4L344.47 210.3" stroke="#132e65" stroke-width="1.5"></path><path d="M233.28 222.4L61.47 254.81" stroke="#132e65" stroke-width="1.5"></path><path d="M344.47 210.3L344.47 210.3" stroke="#132e65" stroke-width="1.5"></path><path d="M344.47 210.3L409.64 389.43" stroke="#132e65" stroke-width="1.5"></path><path d="M409.64 389.43L409.64 389.43" stroke="#132e65" stroke-width="1.5"></path><path d="M409.64 389.43L493.06 381.37" stroke="#132e65" stroke-width="1.5"></path><path d="M409.64 389.43L233.28 222.4" stroke="#132e65" stroke-width="1.5"></path><path d="M409.64 389.43L675.54 375.93" stroke="#132e65" stroke-width="1.5"></path><path d="M409.64 389.43L665.72 231.67" stroke="#132e65" stroke-width="1.5"></path><path d="M493.06 381.37L493.06 381.37" stroke="#132e65" stroke-width="1.5"></path><path d="M493.06 381.37L675.54 375.93" stroke="#132e65" stroke-width="1.5"></path><path d="M493.06 381.37L344.47 210.3" stroke="#132e65" stroke-width="1.5"></path><path d="M493.06 381.37L665.72 231.67" stroke="#132e65" stroke-width="1.5"></path><path d="M493.06 381.37L233.28 222.4" stroke="#132e65" stroke-width="1.5"></path><path d="M493.06 381.37L859.3 389.73" stroke="#132e65" stroke-width="1.5"></path><path d="M665.72 231.67L665.72 231.67" stroke="#132e65" stroke-width="1.5"></path><path d="M665.72 231.67L675.54 375.93" stroke="#132e65" stroke-width="1.5"></path><path d="M665.72 231.67L848.72 200.63" stroke="#132e65" stroke-width="1.5"></path><path d="M665.72 231.67L825.88 70.82" stroke="#132e65" stroke-width="1.5"></path><path d="M675.54 375.93L675.54 375.93" stroke="#132e65" stroke-width="1.5"></path><path d="M675.54 375.93L859.3 389.73" stroke="#132e65" stroke-width="1.5"></path><path d="M825.88 70.82L825.88 70.82" stroke="#132e65" stroke-width="1.5"></path><path d="M825.88 70.82L957.02 78.22" stroke="#132e65" stroke-width="1.5"></path><path d="M825.88 70.82L848.72 200.63" stroke="#132e65" stroke-width="1.5"></path><path d="M825.88 70.82L977.68 210.69" stroke="#132e65" stroke-width="1.5"></path><path d="M825.88 70.82L993.17 -106.41" stroke="#132e65" stroke-width="1.5"></path><path d="M848.72 200.63L848.72 200.63" stroke="#132e65" stroke-width="1.5"></path><path d="M848.72 200.63L977.68 210.69" stroke="#132e65" stroke-width="1.5"></path><path d="M848.72 200.63L957.02 78.22" stroke="#132e65" stroke-width="1.5"></path><path d="M859.3 389.73L859.3 389.73" stroke="#132e65" stroke-width="1.5"></path><path d="M859.3 389.73L996.39 373.69" stroke="#132e65" stroke-width="1.5"></path><path d="M993.17 -106.41L993.17 -106.41" stroke="#132e65" stroke-width="1.5"></path><path d="M993.17 -106.41L957.02 78.22" stroke="#132e65" stroke-width="1.5"></path><path d="M993.17 -106.41L1095.2 108.16" stroke="#132e65" stroke-width="1.5"></path><path d="M993.17 -106.41L1269.41 -64.63" stroke="#132e65" stroke-width="1.5"></path><path d="M993.17 -106.41L1241.58 76.79" stroke="#132e65" stroke-width="1.5"></path><path d="M993.17 -106.41L1090.2 187.55" stroke="#132e65" stroke-width="1.5"></path><path d="M957.02 78.22L957.02 78.22" stroke="#132e65" stroke-width="1.5"></path><path d="M957.02 78.22L977.68 210.69" stroke="#132e65" stroke-width="1.5"></path><path d="M957.02 78.22L1095.2 108.16" stroke="#132e65" stroke-width="1.5"></path><path d="M977.68 210.69L977.68 210.69" stroke="#132e65" stroke-width="1.5"></path><path d="M977.68 210.69L1090.2 187.55" stroke="#132e65" stroke-width="1.5"></path><path d="M996.39 373.69L996.39 373.69" stroke="#132e65" stroke-width="1.5"></path><path d="M996.39 373.69L1137.9 350.69" stroke="#132e65" stroke-width="1.5"></path><path d="M996.39 373.69L977.68 210.69" stroke="#132e65" stroke-width="1.5"></path><path d="M996.39 373.69L1090.2 187.55" stroke="#132e65" stroke-width="1.5"></path><path d="M1095.2 108.16L1095.2 108.16" stroke="#132e65" stroke-width="1.5"></path><path d="M1095.2 108.16L1090.2 187.55" stroke="#132e65" stroke-width="1.5"></path><path d="M1095.2 108.16L1241.58 76.79" stroke="#132e65" stroke-width="1.5"></path><path d="M1095.2 108.16L977.68 210.69" stroke="#132e65" stroke-width="1.5"></path><path d="M1095.2 108.16L1257.73 189.56" stroke="#132e65" stroke-width="1.5"></path><path d="M1090.2 187.55L1090.2 187.55" stroke="#132e65" stroke-width="1.5"></path><path d="M1090.2 187.55L1257.73 189.56" stroke="#132e65" stroke-width="1.5"></path><path d="M1090.2 187.55L1137.9 350.69" stroke="#132e65" stroke-width="1.5"></path><path d="M1090.2 187.55L957.02 78.22" stroke="#132e65" stroke-width="1.5"></path><path d="M1137.9 350.69L1137.9 350.69" stroke="#132e65" stroke-width="1.5"></path><path d="M1137.9 350.69L1306.29 339.36" stroke="#132e65" stroke-width="1.5"></path><path d="M1137.9 350.69L1257.73 189.56" stroke="#132e65" stroke-width="1.5"></path><path d="M1137.9 350.69L977.68 210.69" stroke="#132e65" stroke-width="1.5"></path><path d="M1137.9 350.69L1095.2 108.16" stroke="#132e65" stroke-width="1.5"></path><path d="M1269.41 -64.63L1269.41 -64.63" stroke="#132e65" stroke-width="1.5"></path><path d="M1269.41 -64.63L1395.09 -70.72" stroke="#132e65" stroke-width="1.5"></path><path d="M1269.41 -64.63L1241.58 76.79" stroke="#132e65" stroke-width="1.5"></path><path d="M1269.41 -64.63L1456.22 44.72" stroke="#132e65" stroke-width="1.5"></path><path d="M1269.41 -64.63L1095.2 108.16" stroke="#132e65" stroke-width="1.5"></path><path d="M1269.41 -64.63L1257.73 189.56" stroke="#132e65" stroke-width="1.5"></path><path d="M1241.58 76.79L1241.58 76.79" stroke="#132e65" stroke-width="1.5"></path><path d="M1241.58 76.79L1257.73 189.56" stroke="#132e65" stroke-width="1.5"></path><path d="M1241.58 76.79L1090.2 187.55" stroke="#132e65" stroke-width="1.5"></path><path d="M1241.58 76.79L1395.09 -70.72" stroke="#132e65" stroke-width="1.5"></path><path d="M1257.73 189.56L1257.73 189.56" stroke="#132e65" stroke-width="1.5"></path><path d="M1257.73 189.56L1306.29 339.36" stroke="#132e65" stroke-width="1.5"></path><path d="M1257.73 189.56L1440.2 240.43" stroke="#132e65" stroke-width="1.5"></path><path d="M1306.29 339.36L1306.29 339.36" stroke="#132e65" stroke-width="1.5"></path><path d="M1306.29 339.36L1440.2 240.43" stroke="#132e65" stroke-width="1.5"></path><path d="M1395.09 -70.72L1395.09 -70.72" stroke="#132e65" stroke-width="1.5"></path><path d="M1395.09 -70.72L1456.22 44.72" stroke="#132e65" stroke-width="1.5"></path><path d="M1395.09 -70.72L1548.9 -64.55" stroke="#132e65" stroke-width="1.5"></path><path d="M1456.22 44.72L1456.22 44.72" stroke="#132e65" stroke-width="1.5"></path><path d="M1456.22 44.72L1548.9 -64.55" stroke="#132e65" stroke-width="1.5"></path><path d="M1456.22 44.72L1604.36 72.67" stroke="#132e65" stroke-width="1.5"></path><path d="M1456.22 44.72L1440.2 240.43" stroke="#132e65" stroke-width="1.5"></path><path d="M1456.22 44.72L1241.58 76.79" stroke="#132e65" stroke-width="1.5"></path><path d="M1440.2 240.43L1440.2 240.43" stroke="#132e65" stroke-width="1.5"></path><path d="M1440.2 240.43L1588.63 225.39" stroke="#132e65" stroke-width="1.5"></path><path d="M1440.2 240.43L1549.26 403.16" stroke="#132e65" stroke-width="1.5"></path><path d="M1548.9 -64.55L1548.9 -64.55" stroke="#132e65" stroke-width="1.5"></path><path d="M1548.9 -64.55L1604.36 72.67" stroke="#132e65" stroke-width="1.5"></path><path d="M1604.36 72.67L1604.36 72.67" stroke="#132e65" stroke-width="1.5"></path><path d="M1604.36 72.67L1588.63 225.39" stroke="#132e65" stroke-width="1.5"></path><path d="M1604.36 72.67L1440.2 240.43" stroke="#132e65" stroke-width="1.5"></path><path d="M1604.36 72.67L1395.09 -70.72" stroke="#132e65" stroke-width="1.5"></path><path d="M1604.36 72.67L1549.26 403.16" stroke="#132e65" stroke-width="1.5"></path><path d="M1588.63 225.39L1588.63 225.39" stroke="#132e65" stroke-width="1.5"></path><path d="M1588.63 225.39L1549.26 403.16" stroke="#132e65" stroke-width="1.5"></path><path d="M1549.26 403.16L1549.26 403.16" stroke="#132e65" stroke-width="1.5"></path><circle r="5" cx="-62.91" cy="192.38" fill="#132e65"></circle><circle r="5" cx="-60.3" cy="375.02" fill="#132e65"></circle><circle r="5" cx="61.47" cy="254.81" fill="#132e65"></circle><circle r="5" cx="86.2" cy="393.74" fill="#132e65"></circle><circle r="5" cx="233.28" cy="222.4" fill="#132e65"></circle><circle r="5" cx="344.47" cy="210.3" fill="#132e65"></circle><circle r="5" cx="409.64" cy="389.43" fill="#132e65"></circle><circle r="5" cx="493.06" cy="381.37" fill="#132e65"></circle><circle r="5" cx="665.72" cy="231.67" fill="#132e65"></circle><circle r="5" cx="675.54" cy="375.93" fill="#132e65"></circle><circle r="5" cx="825.88" cy="70.82" fill="#132e65"></circle><circle r="5" cx="848.72" cy="200.63" fill="#132e65"></circle><circle r="5" cx="859.3" cy="389.73" fill="#132e65"></circle><circle r="5" cx="993.17" cy="-106.41" fill="#132e65"></circle><circle r="5" cx="957.02" cy="78.22" fill="#132e65"></circle><circle r="5" cx="977.68" cy="210.69" fill="#132e65"></circle><circle r="5" cx="996.39" cy="373.69" fill="#132e65"></circle><circle r="5" cx="1095.2" cy="108.16" fill="#132e65"></circle><circle r="5" cx="1090.2" cy="187.55" fill="#132e65"></circle><circle r="5" cx="1137.9" cy="350.69" fill="#132e65"></circle><circle r="5" cx="1269.41" cy="-64.63" fill="#132e65"></circle><circle r="5" cx="1241.58" cy="76.79" fill="#132e65"></circle><circle r="5" cx="1257.73" cy="189.56" fill="#132e65"></circle><circle r="5" cx="1306.29" cy="339.36" fill="#132e65"></circle><circle r="5" cx="1395.09" cy="-70.72" fill="#132e65"></circle><circle r="5" cx="1456.22" cy="44.72" fill="#132e65"></circle><circle r="5" cx="1440.2" cy="240.43" fill="#132e65"></circle><circle r="5" cx="1548.9" cy="-64.55" fill="#132e65"></circle><circle r="5" cx="1604.36" cy="72.67" fill="#132e65"></circle><circle r="5" cx="1588.63" cy="225.39" fill="#132e65"></circle><circle r="5" cx="1549.26" cy="403.16" fill="#132e65"></circle><path d="M401.39 231.72L401.39 231.72" stroke="hsl(228.5, 77.2%, 51.5%)" stroke-width="1.5"></path><path d="M401.39 231.72L535.28 200.15" stroke="hsl(228.5, 77.2%, 51.5%)" stroke-width="1.5"></path><path d="M401.39 231.72L262.26 201.36" stroke="hsl(228.5, 77.2%, 51.5%)" stroke-width="1.5"></path><path d="M401.39 231.72L344.16 399.66" stroke="hsl(228.5, 77.2%, 51.5%)" stroke-width="1.5"></path><path d="M401.39 231.72L513.34 379.72" stroke="hsl(228.5, 77.2%, 51.5%)" stroke-width="1.5"></path><path d="M862.13 377.55L862.13 377.55" stroke="hsl(228.5, 77.2%, 51.5%)" stroke-width="1.5"></path><path d="M862.13 377.55L861.39 250.11" stroke="hsl(228.5, 77.2%, 51.5%)" stroke-width="1.5"></path><path d="M862.13 377.55L1011.59 339.78" stroke="hsl(228.5, 77.2%, 51.5%)" stroke-width="1.5"></path><path d="M862.13 377.55L992.35 227.64" stroke="hsl(228.5, 77.2%, 51.5%)" stroke-width="1.5"></path><path d="M862.13 377.55L657.68 378.51" stroke="hsl(228.5, 77.2%, 51.5%)" stroke-width="1.5"></path><path d="M862.13 377.55L694.79 228.58" stroke="hsl(228.5, 77.2%, 51.5%)" stroke-width="1.5"></path><path d="M1388.15 -61.94L1388.15 -61.94" stroke="hsl(228.5, 77.2%, 51.5%)" stroke-width="1.5"></path><path d="M1388.15 -61.94L1296.31 -96.8" stroke="hsl(228.5, 77.2%, 51.5%)" stroke-width="1.5"></path><path d="M1388.15 -61.94L1394.94 48.36" stroke="hsl(228.5, 77.2%, 51.5%)" stroke-width="1.5"></path><path d="M1388.15 -61.94L1297.39 56.77" stroke="hsl(228.5, 77.2%, 51.5%)" stroke-width="1.5"></path><path d="M1388.15 -61.94L1579.69 -44.29" stroke="hsl(228.5, 77.2%, 51.5%)" stroke-width="1.5"></path><path d="M1388.15 -61.94L1587.74 78.81" stroke="hsl(228.5, 77.2%, 51.5%)" stroke-width="1.5"></path><path d="M1388.15 -61.94L1260.96 193.91" stroke="hsl(228.5, 77.2%, 51.5%)" stroke-width="1.5"></path><path d="M1587.74 78.81L1587.74 78.81" stroke="hsl(228.5, 77.2%, 51.5%)" stroke-width="1.5"></path><path d="M1587.74 78.81L1579.69 -44.29" stroke="hsl(228.5, 77.2%, 51.5%)" stroke-width="1.5"></path><path d="M1587.74 78.81L1394.94 48.36" stroke="hsl(228.5, 77.2%, 51.5%)" stroke-width="1.5"></path><path d="M1587.74 78.81L1423.4 251.46" stroke="hsl(228.5, 77.2%, 51.5%)" stroke-width="1.5"></path><path d="M-74.6 248.22L-74.6 248.22" stroke="hsl(228.5, 77.2%, 51.5%)" stroke-width="1.5"></path><path d="M-74.6 248.22L-53.73 360.7" stroke="hsl(228.5, 77.2%, 51.5%)" stroke-width="1.5"></path><path d="M-74.6 248.22L96.31 259.32" stroke="hsl(228.5, 77.2%, 51.5%)" stroke-width="1.5"></path><path d="M-74.6 248.22L61.4 356.05" stroke="hsl(228.5, 77.2%, 51.5%)" stroke-width="1.5"></path><path d="M-74.6 248.22L212.02 381.26" stroke="hsl(228.5, 77.2%, 51.5%)" stroke-width="1.5"></path><path d="M-53.73 360.7L-53.73 360.7" stroke="hsl(228.5, 77.2%, 51.5%)" stroke-width="1.5"></path><path d="M-53.73 360.7L61.4 356.05" stroke="hsl(228.5, 77.2%, 51.5%)" stroke-width="1.5"></path><path d="M96.31 259.32L96.31 259.32" stroke="hsl(228.5, 77.2%, 51.5%)" stroke-width="1.5"></path><path d="M96.31 259.32L61.4 356.05" stroke="hsl(228.5, 77.2%, 51.5%)" stroke-width="1.5"></path><path d="M96.31 259.32L212.02 381.26" stroke="hsl(228.5, 77.2%, 51.5%)" stroke-width="1.5"></path><path d="M61.4 356.05L61.4 356.05" stroke="hsl(228.5, 77.2%, 51.5%)" stroke-width="1.5"></path><path d="M61.4 356.05L212.02 381.26" stroke="hsl(228.5, 77.2%, 51.5%)" stroke-width="1.5"></path><path d="M262.26 201.36L262.26 201.36" stroke="hsl(228.5, 77.2%, 51.5%)" stroke-width="1.5"></path><path d="M262.26 201.36L96.31 259.32" stroke="hsl(228.5, 77.2%, 51.5%)" stroke-width="1.5"></path><path d="M262.26 201.36L212.02 381.26" stroke="hsl(228.5, 77.2%, 51.5%)" stroke-width="1.5"></path><path d="M262.26 201.36L344.16 399.66" stroke="hsl(228.5, 77.2%, 51.5%)" stroke-width="1.5"></path><path d="M262.26 201.36L61.4 356.05" stroke="hsl(228.5, 77.2%, 51.5%)" stroke-width="1.5"></path><path d="M262.26 201.36L535.28 200.15" stroke="hsl(228.5, 77.2%, 51.5%)" stroke-width="1.5"></path><path d="M212.02 381.26L212.02 381.26" stroke="hsl(228.5, 77.2%, 51.5%)" stroke-width="1.5"></path><path d="M212.02 381.26L344.16 399.66" stroke="hsl(228.5, 77.2%, 51.5%)" stroke-width="1.5"></path><path d="M212.02 381.26L401.39 231.72" stroke="hsl(228.5, 77.2%, 51.5%)" stroke-width="1.5"></path><path d="M344.16 399.66L344.16 399.66" stroke="hsl(228.5, 77.2%, 51.5%)" stroke-width="1.5"></path><path d="M344.16 399.66L513.34 379.72" stroke="hsl(228.5, 77.2%, 51.5%)" stroke-width="1.5"></path><path d="M535.28 200.15L535.28 200.15" stroke="hsl(228.5, 77.2%, 51.5%)" stroke-width="1.5"></path><path d="M535.28 200.15L694.79 228.58" stroke="hsl(228.5, 77.2%, 51.5%)" stroke-width="1.5"></path><path d="M535.28 200.15L513.34 379.72" stroke="hsl(228.5, 77.2%, 51.5%)" stroke-width="1.5"></path><path d="M535.28 200.15L657.68 378.51" stroke="hsl(228.5, 77.2%, 51.5%)" stroke-width="1.5"></path><path d="M513.34 379.72L513.34 379.72" stroke="hsl(228.5, 77.2%, 51.5%)" stroke-width="1.5"></path><path d="M513.34 379.72L657.68 378.51" stroke="hsl(228.5, 77.2%, 51.5%)" stroke-width="1.5"></path><path d="M513.34 379.72L694.79 228.58" stroke="hsl(228.5, 77.2%, 51.5%)" stroke-width="1.5"></path><path d="M694.79 228.58L694.79 228.58" stroke="hsl(228.5, 77.2%, 51.5%)" stroke-width="1.5"></path><path d="M694.79 228.58L657.68 378.51" stroke="hsl(228.5, 77.2%, 51.5%)" stroke-width="1.5"></path><path d="M694.79 228.58L861.39 250.11" stroke="hsl(228.5, 77.2%, 51.5%)" stroke-width="1.5"></path><path d="M657.68 378.51L657.68 378.51" stroke="hsl(228.5, 77.2%, 51.5%)" stroke-width="1.5"></path><path d="M657.68 378.51L861.39 250.11" stroke="hsl(228.5, 77.2%, 51.5%)" stroke-width="1.5"></path><path d="M657.68 378.51L401.39 231.72" stroke="hsl(228.5, 77.2%, 51.5%)" stroke-width="1.5"></path><path d="M861.39 250.11L861.39 250.11" stroke="hsl(228.5, 77.2%, 51.5%)" stroke-width="1.5"></path><path d="M992.35 227.64L992.35 227.64" stroke="hsl(228.5, 77.2%, 51.5%)" stroke-width="1.5"></path><path d="M992.35 227.64L1011.59 339.78" stroke="hsl(228.5, 77.2%, 51.5%)" stroke-width="1.5"></path><path d="M992.35 227.64L1113.42 188.89" stroke="hsl(228.5, 77.2%, 51.5%)" stroke-width="1.5"></path><path d="M1011.59 339.78L1011.59 339.78" stroke="hsl(228.5, 77.2%, 51.5%)" stroke-width="1.5"></path><path d="M1011.59 339.78L1098.08 361.2" stroke="hsl(228.5, 77.2%, 51.5%)" stroke-width="1.5"></path><path d="M1113.42 188.89L1113.42 188.89" stroke="hsl(228.5, 77.2%, 51.5%)" stroke-width="1.5"></path><path d="M1113.42 188.89L1260.96 193.91" stroke="hsl(228.5, 77.2%, 51.5%)" stroke-width="1.5"></path><path d="M1113.42 188.89L1098.08 361.2" stroke="hsl(228.5, 77.2%, 51.5%)" stroke-width="1.5"></path><path d="M1113.42 188.89L1011.59 339.78" stroke="hsl(228.5, 77.2%, 51.5%)" stroke-width="1.5"></path><path d="M1113.42 188.89L1297.39 56.77" stroke="hsl(228.5, 77.2%, 51.5%)" stroke-width="1.5"></path><path d="M1113.42 188.89L861.39 250.11" stroke="hsl(228.5, 77.2%, 51.5%)" stroke-width="1.5"></path><path d="M1098.08 361.2L1098.08 361.2" stroke="hsl(228.5, 77.2%, 51.5%)" stroke-width="1.5"></path><path d="M1098.08 361.2L992.35 227.64" stroke="hsl(228.5, 77.2%, 51.5%)" stroke-width="1.5"></path><path d="M1098.08 361.2L1275.04 403.73" stroke="hsl(228.5, 77.2%, 51.5%)" stroke-width="1.5"></path><path d="M1098.08 361.2L1260.96 193.91" stroke="hsl(228.5, 77.2%, 51.5%)" stroke-width="1.5"></path><path d="M1098.08 361.2L862.13 377.55" stroke="hsl(228.5, 77.2%, 51.5%)" stroke-width="1.5"></path><path d="M1296.31 -96.8L1296.31 -96.8" stroke="hsl(228.5, 77.2%, 51.5%)" stroke-width="1.5"></path><path d="M1296.31 -96.8L1297.39 56.77" stroke="hsl(228.5, 77.2%, 51.5%)" stroke-width="1.5"></path><path d="M1296.31 -96.8L1394.94 48.36" stroke="hsl(228.5, 77.2%, 51.5%)" stroke-width="1.5"></path><path d="M1297.39 56.77L1297.39 56.77" stroke="hsl(228.5, 77.2%, 51.5%)" stroke-width="1.5"></path><path d="M1297.39 56.77L1394.94 48.36" stroke="hsl(228.5, 77.2%, 51.5%)" stroke-width="1.5"></path><path d="M1297.39 56.77L1260.96 193.91" stroke="hsl(228.5, 77.2%, 51.5%)" stroke-width="1.5"></path><path d="M1260.96 193.91L1260.96 193.91" stroke="hsl(228.5, 77.2%, 51.5%)" stroke-width="1.5"></path><path d="M1260.96 193.91L1423.4 251.46" stroke="hsl(228.5, 77.2%, 51.5%)" stroke-width="1.5"></path><path d="M1260.96 193.91L1394.94 48.36" stroke="hsl(228.5, 77.2%, 51.5%)" stroke-width="1.5"></path><path d="M1275.04 403.73L1275.04 403.73" stroke="hsl(228.5, 77.2%, 51.5%)" stroke-width="1.5"></path><path d="M1275.04 403.73L1260.96 193.91" stroke="hsl(228.5, 77.2%, 51.5%)" stroke-width="1.5"></path><path d="M1275.04 403.73L1423.4 251.46" stroke="hsl(228.5, 77.2%, 51.5%)" stroke-width="1.5"></path><path d="M1394.94 48.36L1394.94 48.36" stroke="hsl(228.5, 77.2%, 51.5%)" stroke-width="1.5"></path><path d="M1423.4 251.46L1423.4 251.46" stroke="hsl(228.5, 77.2%, 51.5%)" stroke-width="1.5"></path><path d="M1423.4 251.46L1394.94 48.36" stroke="hsl(228.5, 77.2%, 51.5%)" stroke-width="1.5"></path><path d="M1423.4 251.46L1606.92 380.85" stroke="hsl(228.5, 77.2%, 51.5%)" stroke-width="1.5"></path><path d="M1423.4 251.46L1297.39 56.77" stroke="hsl(228.5, 77.2%, 51.5%)" stroke-width="1.5"></path><path d="M1579.69 -44.29L1579.69 -44.29" stroke="hsl(228.5, 77.2%, 51.5%)" stroke-width="1.5"></path><path d="M1579.69 -44.29L1394.94 48.36" stroke="hsl(228.5, 77.2%, 51.5%)" stroke-width="1.5"></path><path d="M1579.69 -44.29L1296.31 -96.8" stroke="hsl(228.5, 77.2%, 51.5%)" stroke-width="1.5"></path><path d="M1579.69 -44.29L1297.39 56.77" stroke="hsl(228.5, 77.2%, 51.5%)" stroke-width="1.5"></path><path d="M1606.92 380.85L1606.92 380.85" stroke="hsl(228.5, 77.2%, 51.5%)" stroke-width="1.5"></path><path d="M1606.92 380.85L1587.74 78.81" stroke="hsl(228.5, 77.2%, 51.5%)" stroke-width="1.5"></path><path d="M1606.92 380.85L1275.04 403.73" stroke="hsl(228.5, 77.2%, 51.5%)" stroke-width="1.5"></path><circle r="25" cx="401.39" cy="231.72" fill="url(&quot;#SvgjsRadialGradient2014&quot;)"></circle><circle r="25" cx="862.13" cy="377.55" fill="url(&quot;#SvgjsRadialGradient2014&quot;)"></circle><circle r="25" cx="1388.15" cy="-61.94" fill="url(&quot;#SvgjsRadialGradient2014&quot;)"></circle><circle r="25" cx="1587.74" cy="78.81" fill="url(&quot;#SvgjsRadialGradient2014&quot;)"></circle><circle r="5" cx="-74.6" cy="248.22" fill="#8b9ad9"></circle><circle r="5" cx="-53.73" cy="360.7" fill="#8b9ad9"></circle><circle r="5" cx="96.31" cy="259.32" fill="#8b9ad9"></circle><circle r="5" cx="61.4" cy="356.05" fill="#8b9ad9"></circle><circle r="5" cx="262.26" cy="201.36" fill="#8b9ad9"></circle><circle r="5" cx="212.02" cy="381.26" fill="#8b9ad9"></circle><circle r="5" cx="344.16" cy="399.66" fill="#8b9ad9"></circle><circle r="5" cx="535.28" cy="200.15" fill="#8b9ad9"></circle><circle r="5" cx="513.34" cy="379.72" fill="#8b9ad9"></circle><circle r="5" cx="694.79" cy="228.58" fill="#8b9ad9"></circle><circle r="5" cx="657.68" cy="378.51" fill="#8b9ad9"></circle><circle r="5" cx="861.39" cy="250.11" fill="#8b9ad9"></circle><circle r="5" cx="992.35" cy="227.64" fill="#8b9ad9"></circle><circle r="5" cx="1011.59" cy="339.78" fill="#8b9ad9"></circle><circle r="5" cx="1113.42" cy="188.89" fill="#8b9ad9"></circle><circle r="5" cx="1098.08" cy="361.2" fill="#8b9ad9"></circle><circle r="5" cx="1296.31" cy="-96.8" fill="#8b9ad9"></circle><circle r="5" cx="1297.39" cy="56.77" fill="#8b9ad9"></circle><circle r="5" cx="1260.96" cy="193.91" fill="#8b9ad9"></circle><circle r="5" cx="1275.04" cy="403.73" fill="#8b9ad9"></circle><circle r="5" cx="1394.94" cy="48.36" fill="#8b9ad9"></circle><circle r="5" cx="1423.4" cy="251.46" fill="#8b9ad9"></circle><circle r="5" cx="1579.69" cy="-44.29" fill="#8b9ad9"></circle><circle r="5" cx="1606.92" cy="380.85" fill="#8b9ad9"></circle></g><defs><mask id="SvgjsMask2012"><rect width="1419" height="256" fill="#ffffff"></rect></mask><linearGradient x1="20.49%" y1="-113.57%" x2="79.51%" y2="213.57%" gradientUnits="userSpaceOnUse" id="SvgjsLinearGradient2013"><stop stop-color="#0e2a47" offset="0"></stop><stop stop-color="rgba(0, 69, 158, 1)" offset="1"></stop></linearGradient><radialGradient id="SvgjsRadialGradient2014"><stop stop-color="#ffffff" offset="0.1"></stop><stop stop-color="#1735b3" offset="0.2"></stop><stop stop-color="rgba(23, 53, 179, 0)" offset="1"></stop></radialGradient></defs></svg>